<?xml version="1.0" encoding="UTF-8" standalone="no"?>
<!DOCTYPE svg PUBLIC "-//W3C//DTD SVG 1.1//EN"
 "http://www.w3.org/Graphics/SVG/1.1/DTD/svg11.dtd">
<!-- Generated by graphviz version 2.38.0 (20140413.2041)
 -->
<!-- Title: %3 Pages: 1 -->
<svg width="754pt" height="456pt"
 viewBox="0.00 0.00 754.00 456.00" xmlns="http://www.w3.org/2000/svg" xmlns:xlink="http://www.w3.org/1999/xlink">
<g id="graph0" class="graph" transform="scale(1 1) rotate(0) translate(4 452)">
<title>%3</title>
<polygon fill="white" stroke="none" points="-4,4 -4,-452 750,-452 750,4 -4,4"/>
<!-- 1.A -->
<g id="node1" class="node"><title>1.A</title>
<polygon fill="#ccffcc" stroke="black" points="131,-250 77,-250 77,-214 131,-214 131,-250"/>
<text text-anchor="middle" x="104" y="-228.3" font-family="Times,serif" font-size="14.00">1.A</text>
</g>
<!-- 1.I -->
<g id="node2" class="node"><title>1.I</title>
<polygon fill="#ccffcc" stroke="black" points="222,-326 168,-326 168,-290 222,-290 222,-326"/>
<text text-anchor="middle" x="195" y="-304.3" font-family="Times,serif" font-size="14.00">1.I</text>
</g>
<!-- 1.A&#45;&gt;1.I -->
<g id="edge3" class="edge"><title>1.A&#45;&gt;1.I</title>
<path fill="none" stroke="#000000" d="M124.176,-258.515C131.331,-267.294 139.935,-276.681 149,-284 154.649,-288.561 161.296,-292.663 167.722,-296.131"/>
<polygon fill="#000000" stroke="#000000" points="126.716,-256.082 117.791,-250.372 121.207,-260.401 126.716,-256.082"/>
</g>
<!-- 1.F -->
<g id="node5" class="node"><title>1.F</title>
<polygon fill="#ccffcc" stroke="black" points="313,-347 259,-347 259,-311 313,-311 313,-347"/>
<text text-anchor="middle" x="286" y="-325.3" font-family="Times,serif" font-size="14.00">1.F</text>
</g>
<!-- 1.A&#45;&gt;1.F -->
<g id="edge5" class="edge"><title>1.A&#45;&gt;1.F</title>
<path fill="none" stroke="#000000" d="M140.602,-245.629C164.267,-255.214 195.709,-268.974 222,-284 235.887,-291.937 250.476,-302.219 262.114,-310.95"/>
<polygon fill="#000000" stroke="#000000" points="141.881,-242.371 131.297,-241.912 139.285,-248.872 141.881,-242.371"/>
</g>
<!-- 1.B -->
<g id="node7" class="node"><title>1.B</title>
<polygon fill="#ccffcc" stroke="black" points="222,-212 168,-212 168,-176 222,-176 222,-212"/>
<text text-anchor="middle" x="195" y="-190.3" font-family="Times,serif" font-size="14.00">1.B</text>
</g>
<!-- 1.A&#45;&gt;1.B -->
<g id="edge4" class="edge"><title>1.A&#45;&gt;1.B</title>
<path fill="none" stroke="#000000" d="M140.514,-216.837C149.682,-212.922 159.381,-208.781 167.966,-205.116"/>
<polygon fill="#000000" stroke="#000000" points="139.044,-213.659 131.222,-220.804 141.793,-220.096 139.044,-213.659"/>
</g>
<!-- 2.A -->
<g id="node14" class="node"><title>2.A</title>
<polygon fill="#ffffcc" stroke="black" points="746,-224.544 746,-239.456 730.184,-250 707.816,-250 692,-239.456 692,-224.544 707.816,-214 730.184,-214 746,-224.544"/>
<text text-anchor="middle" x="719" y="-228.3" font-family="Times,serif" font-size="14.00">2.A</text>
</g>
<!-- 1.A&#45;&gt;2.A -->
<g id="edge22" class="edge"><title>1.A&#45;&gt;2.A</title>
<path fill="none" stroke="#aa00ff" stroke-width="3" stroke-dasharray="1,5" d="M107.931,-213.795C117.246,-159.104 148.272,-0 194,-0 194,-0 194,-0 629,-0 672.227,-0 702.317,-142.177 713.347,-203.929"/>
<polygon fill="#aa00ff" stroke="#aa00ff" stroke-width="3" points="709.902,-204.546 715.069,-213.795 716.798,-203.343 709.902,-204.546"/>
<text text-anchor="middle" x="393" y="-3.8" font-family="Times,serif" font-size="14.00">==</text>
</g>
<!-- 1.D -->
<g id="node3" class="node"><title>1.D</title>
<polygon fill="#ccffcc" stroke="black" points="313,-170 259,-170 259,-134 313,-134 313,-170"/>
<text text-anchor="middle" x="286" y="-148.3" font-family="Times,serif" font-size="14.00">1.D</text>
</g>
<!-- 2C+ -->
<g id="node18" class="node"><title>2C+</title>
<ellipse fill="#ffffff" stroke="black" cx="393" cy="-151" rx="18" ry="18"/>
<text text-anchor="middle" x="393" y="-147.3" font-family="Times,serif" font-size="14.00">+</text>
</g>
<!-- 1.D&#45;&gt;2C+ -->
<g id="edge21" class="edge"><title>1.D&#45;&gt;2C+</title>
<path fill="none" stroke="#aa00ff" stroke-width="3" stroke-dasharray="1,5" d="M313.225,-151.75C328.919,-151.601 348.835,-151.411 364.714,-151.26"/>
<polygon fill="#aa00ff" stroke="#aa00ff" stroke-width="3" points="364.995,-154.757 374.961,-151.162 364.928,-147.758 364.995,-154.757"/>
<text text-anchor="middle" x="339.5" y="-155.8" font-family="Times,serif" font-size="14.00">in</text>
</g>
<!-- 1.E -->
<g id="node4" class="node"><title>1.E</title>
<polygon fill="#ccffcc" stroke="black" points="313,-94 259,-94 259,-58 313,-58 313,-94"/>
<text text-anchor="middle" x="286" y="-72.3" font-family="Times,serif" font-size="14.00">1.E</text>
</g>
<!-- 2.E -->
<g id="node17" class="node"><title>2.E</title>
<polygon fill="#ffffcc" stroke="black" points="492,-38.5442 492,-53.4558 476.184,-64 453.816,-64 438,-53.4558 438,-38.5442 453.816,-28 476.184,-28 492,-38.5442"/>
<text text-anchor="middle" x="465" y="-42.3" font-family="Times,serif" font-size="14.00">2.E</text>
</g>
<!-- 1.E&#45;&gt;2.E -->
<g id="edge25" class="edge"><title>1.E&#45;&gt;2.E</title>
<path fill="none" stroke="#aa00ff" stroke-width="3" stroke-dasharray="1,5" d="M313.117,-71.5734C343.444,-66.4332 393.658,-57.9224 427.752,-52.1437"/>
<polygon fill="#aa00ff" stroke="#aa00ff" stroke-width="3" points="428.501,-55.5667 437.776,-50.4448 427.332,-48.6651 428.501,-55.5667"/>
<text text-anchor="middle" x="339.5" y="-72.8" font-family="Times,serif" font-size="14.00">==</text>
</g>
<!-- 1.G -->
<g id="node6" class="node"><title>1.G</title>
<polygon fill="#ccffcc" stroke="black" points="420,-393 366,-393 366,-357 420,-357 420,-393"/>
<text text-anchor="middle" x="393" y="-371.3" font-family="Times,serif" font-size="14.00">1.G</text>
</g>
<!-- 1.F&#45;&gt;1.G -->
<g id="edge8" class="edge"><title>1.F&#45;&gt;1.G</title>
<path fill="none" stroke="#000000" d="M322.652,-344.619C336.772,-350.805 352.712,-357.788 365.745,-363.498"/>
<polygon fill="#000000" stroke="#000000" points="323.789,-341.296 313.225,-340.489 320.98,-347.708 323.789,-341.296"/>
</g>
<!-- 1.H -->
<g id="node9" class="node"><title>1.H</title>
<polygon fill="#ccffcc" stroke="black" points="420,-347 366,-347 366,-311 420,-311 420,-347"/>
<text text-anchor="middle" x="393" y="-325.3" font-family="Times,serif" font-size="14.00">1.H</text>
</g>
<!-- 1.F&#45;&gt;1.H -->
<g id="edge1" class="edge"><title>1.F&#45;&gt;1.H</title>
<path fill="none" stroke="#000000" d="M323.469,-329C337.384,-329 352.962,-329 365.745,-329"/>
<polygon fill="#000000" stroke="#000000" points="323.225,-325.5 313.225,-329 323.225,-332.5 323.225,-325.5"/>
</g>
<!-- 2.B -->
<g id="node13" class="node"><title>2.B</title>
<polygon fill="#ffffcc" stroke="black" points="655,-224.544 655,-239.456 639.184,-250 616.816,-250 601,-239.456 601,-224.544 616.816,-214 639.184,-214 655,-224.544"/>
<text text-anchor="middle" x="628" y="-228.3" font-family="Times,serif" font-size="14.00">2.B</text>
</g>
<!-- 1.F&#45;&gt;2.B -->
<g id="edge17" class="edge"><title>1.F&#45;&gt;2.B</title>
<path fill="none" stroke="#aa00ff" stroke-width="3" stroke-dasharray="1,5" d="M313.17,-319.491C328.477,-314.072 348.227,-307.322 366,-302 461.418,-273.428 487.283,-273.555 583,-246 585.985,-245.141 589.075,-244.221 592.169,-243.278"/>
<polygon fill="#aa00ff" stroke="#aa00ff" stroke-width="3" points="593.435,-246.55 601.944,-240.237 591.355,-239.866 593.435,-246.55"/>
<text text-anchor="middle" x="465" y="-285.8" font-family="Times,serif" font-size="14.00">&gt;&lt;</text>
</g>
<!-- 2.F -->
<g id="node16" class="node"><title>2.F</title>
<polygon fill="#ffffcc" stroke="black" points="655,-366.544 655,-381.456 639.184,-392 616.816,-392 601,-381.456 601,-366.544 616.816,-356 639.184,-356 655,-366.544"/>
<text text-anchor="middle" x="628" y="-370.3" font-family="Times,serif" font-size="14.00">2.F</text>
</g>
<!-- 1.F&#45;&gt;2.F -->
<g id="edge18" class="edge"><title>1.F&#45;&gt;2.F</title>
<path fill="none" stroke="#aa00ff" stroke-width="3" stroke-dasharray="1,5" d="M300.779,-347.228C315.025,-364.565 338.948,-389.761 366,-402 446.406,-438.378 479.675,-443.034 564,-417 578.318,-412.58 592.287,-403.666 603.418,-395.094"/>
<polygon fill="#aa00ff" stroke="#aa00ff" stroke-width="3" points="605.765,-397.698 611.336,-388.687 601.361,-392.257 605.765,-397.698"/>
<text text-anchor="middle" x="465" y="-436.8" font-family="Times,serif" font-size="14.00">&gt;&lt;</text>
</g>
<!-- 2.G -->
<g id="node15" class="node"><title>2.G</title>
<polygon fill="#ffffcc" stroke="black" points="564,-388.544 564,-403.456 548.184,-414 525.816,-414 510,-403.456 510,-388.544 525.816,-378 548.184,-378 564,-388.544"/>
<text text-anchor="middle" x="537" y="-392.3" font-family="Times,serif" font-size="14.00">2.G</text>
</g>
<!-- 1.G&#45;&gt;2.G -->
<g id="edge20" class="edge"><title>1.G&#45;&gt;2.G</title>
<path fill="none" stroke="#aa00ff" stroke-width="3" stroke-dasharray="1,5" d="M420.045,-378.852C442.324,-382.146 474.634,-386.925 499.493,-390.601"/>
<polygon fill="#aa00ff" stroke="#aa00ff" stroke-width="3" points="499.235,-394.101 509.639,-392.102 500.259,-387.176 499.235,-394.101"/>
<text text-anchor="middle" x="465" y="-392.8" font-family="Times,serif" font-size="14.00">==</text>
</g>
<!-- 1.B&#45;&gt;1.D -->
<g id="edge7" class="edge"><title>1.B&#45;&gt;1.D</title>
<path fill="none" stroke="#000000" d="M231.514,-177.24C240.682,-172.914 250.381,-168.337 258.966,-164.286"/>
<polygon fill="#000000" stroke="#000000" points="229.771,-174.193 222.222,-181.626 232.759,-180.523 229.771,-174.193"/>
</g>
<!-- 1.B&#45;&gt;1.E -->
<g id="edge6" class="edge"><title>1.B&#45;&gt;1.E</title>
<path fill="none" stroke="#000000" d="M215.819,-167.723C232.731,-145.301 256.599,-113.656 271.419,-94.0059"/>
<polygon fill="#000000" stroke="#000000" points="212.939,-165.73 209.711,-175.821 218.527,-169.945 212.939,-165.73"/>
</g>
<!-- 1.C -->
<g id="node8" class="node"><title>1.C</title>
<polygon fill="#ccffcc" stroke="black" points="564,-190 510,-190 510,-154 564,-154 564,-190"/>
<text text-anchor="middle" x="537" y="-168.3" font-family="Times,serif" font-size="14.00">1.C</text>
</g>
<!-- 1.B&#45;&gt;1.C -->
<g id="edge2" class="edge"><title>1.B&#45;&gt;1.C</title>
<path fill="none" stroke="#000000" d="M232.346,-193.829C288.302,-193.217 398.841,-190.625 492,-180 497.708,-179.349 503.793,-178.406 509.56,-177.394"/>
<polygon fill="#000000" stroke="#000000" points="232.193,-190.33 222.227,-193.924 232.259,-197.33 232.193,-190.33"/>
</g>
<!-- 1.B&#45;&gt;2.B -->
<g id="edge16" class="edge"><title>1.B&#45;&gt;2.B</title>
<path fill="none" stroke="#aa00ff" stroke-width="3" stroke-dasharray="1,5" d="M222.034,-211.665C239.157,-221.589 262.487,-232 285,-232 285,-232 285,-232 538,-232 555.365,-232 574.635,-232 590.792,-232"/>
<polygon fill="#aa00ff" stroke="#aa00ff" stroke-width="3" points="590.908,-235.5 600.908,-232 590.908,-228.5 590.908,-235.5"/>
<text text-anchor="middle" x="393" y="-235.8" font-family="Times,serif" font-size="14.00">&lt;</text>
</g>
<!-- 2.H -->
<g id="node11" class="node"><title>2.H</title>
<polygon fill="#ffffcc" stroke="black" points="564,-306.544 564,-321.456 548.184,-332 525.816,-332 510,-321.456 510,-306.544 525.816,-296 548.184,-296 564,-306.544"/>
<text text-anchor="middle" x="537" y="-310.3" font-family="Times,serif" font-size="14.00">2.H</text>
</g>
<!-- 1.H&#45;&gt;2.H -->
<g id="edge19" class="edge"><title>1.H&#45;&gt;2.H</title>
<path fill="none" stroke="#aa00ff" stroke-width="3" stroke-dasharray="1,5" d="M420.045,-326.249C442.324,-323.895 474.634,-320.482 499.493,-317.856"/>
<polygon fill="#aa00ff" stroke="#aa00ff" stroke-width="3" points="500.062,-321.316 509.639,-316.785 499.327,-314.355 500.062,-321.316"/>
<text text-anchor="middle" x="465" y="-327.8" font-family="Times,serif" font-size="14.00">==</text>
</g>
<!-- 2.I -->
<g id="node10" class="node"><title>2.I</title>
<polygon fill="#ffffcc" stroke="black" points="564,-347.544 564,-362.456 548.184,-373 525.816,-373 510,-362.456 510,-347.544 525.816,-337 548.184,-337 564,-347.544"/>
<text text-anchor="middle" x="537" y="-351.3" font-family="Times,serif" font-size="14.00">2.I</text>
</g>
<!-- 2.I&#45;&gt;2.F -->
<g id="edge15" class="edge"><title>2.I&#45;&gt;2.F</title>
<path fill="none" stroke="#000000" d="M564.222,-360.598C572.641,-362.395 582.117,-364.418 591.106,-366.337"/>
<polygon fill="#000000" stroke="#000000" points="590.455,-369.777 600.966,-368.442 591.917,-362.931 590.455,-369.777"/>
</g>
<!-- 2.H&#45;&gt;2.B -->
<g id="edge12" class="edge"><title>2.H&#45;&gt;2.B</title>
<path fill="none" stroke="#000000" d="M561.72,-305.02C568.996,-301.602 576.729,-297.243 583,-292 594.104,-282.716 603.916,-270.065 611.441,-258.773"/>
<polygon fill="#000000" stroke="#000000" points="614.546,-260.413 616.967,-250.098 608.642,-256.652 614.546,-260.413"/>
</g>
<!-- 2.C -->
<g id="node12" class="node"><title>2.C</title>
<polygon fill="#ffffcc" stroke="black" points="564,-107.544 564,-122.456 548.184,-133 525.816,-133 510,-122.456 510,-107.544 525.816,-97 548.184,-97 564,-107.544"/>
<text text-anchor="middle" x="537" y="-111.3" font-family="Times,serif" font-size="14.00">2.C</text>
</g>
<!-- 2.C&#45;&gt;2.B -->
<g id="edge11" class="edge"><title>2.C&#45;&gt;2.B</title>
<path fill="none" stroke="#000000" d="M552.027,-130.662C555.982,-135.218 560.232,-140.248 564,-145 579.885,-165.034 596.825,-188.562 609.134,-206.096"/>
<polygon fill="#000000" stroke="#000000" points="606.524,-208.473 615.118,-214.669 612.264,-204.466 606.524,-208.473"/>
</g>
<!-- 2.B&#45;&gt;2.A -->
<g id="edge13" class="edge"><title>2.B&#45;&gt;2.A</title>
<path fill="none" stroke="#000000" d="M655.222,-232C663.551,-232 672.914,-232 681.816,-232"/>
<polygon fill="#000000" stroke="#000000" points="681.966,-235.5 691.966,-232 681.966,-228.5 681.966,-235.5"/>
</g>
<!-- 2.G&#45;&gt;2.F -->
<g id="edge14" class="edge"><title>2.G&#45;&gt;2.F</title>
<path fill="none" stroke="#000000" d="M564.222,-389.518C572.641,-387.437 582.117,-385.095 591.106,-382.873"/>
<polygon fill="#000000" stroke="#000000" points="592.098,-386.233 600.966,-380.435 590.418,-379.437 592.098,-386.233"/>
</g>
<!-- 2.F&#45;&gt;2.A -->
<g id="edge9" class="edge"><title>2.F&#45;&gt;2.A</title>
<path fill="none" stroke="#000000" d="M640.092,-356.303C655.481,-331.749 683.432,-287.153 701.337,-258.586"/>
<polygon fill="#000000" stroke="#000000" points="704.423,-260.252 706.768,-249.92 698.492,-256.535 704.423,-260.252"/>
</g>
<!-- 2.E&#45;&gt;2.B -->
<g id="edge10" class="edge"><title>2.E&#45;&gt;2.B</title>
<path fill="none" stroke="#000000" d="M492.355,-51.579C514.034,-57.3828 544.293,-68.4405 564,-88 596.365,-120.123 613.321,-171.668 621.194,-203.591"/>
<polygon fill="#000000" stroke="#000000" points="617.85,-204.661 623.525,-213.608 624.668,-203.075 617.85,-204.661"/>
</g>
<!-- 2C+&#45;&gt;1.C -->
<g id="edge24" class="edge"><title>2C+&#45;&gt;1.C</title>
<path fill="none" stroke="#aa00ff" stroke-width="3" stroke-dasharray="1,5" d="M421.094,-154.753C440.779,-157.508 468.054,-161.385 492,-165 497.813,-165.878 504.052,-166.851 509.952,-167.786"/>
<polygon fill="#aa00ff" stroke="#aa00ff" stroke-width="3" points="421.396,-151.261 411.008,-153.346 420.429,-158.194 421.396,-151.261"/>
<text text-anchor="middle" x="465" y="-168.8" font-family="Times,serif" font-size="14.00">in</text>
</g>
<!-- 2C+&#45;&gt;2.C -->
<g id="edge23" class="edge"><title>2C+&#45;&gt;2.C</title>
<path fill="none" stroke="#aa00ff" stroke-width="3" stroke-dasharray="1,5" d="M410.688,-146.339C418.9,-144.073 428.955,-141.341 438,-139 458.461,-133.705 481.404,-128.07 499.945,-123.592"/>
<polygon fill="#aa00ff" stroke="#aa00ff" stroke-width="3" points="500.845,-126.975 509.748,-121.232 499.207,-120.17 500.845,-126.975"/>
<text text-anchor="middle" x="465" y="-142.8" font-family="Times,serif" font-size="14.00">out</text>
</g>
<!-- Legend -->
<g id="node19" class="node"><title>Legend</title>
<polygon fill="white" stroke="black" points="59,-332 0,-332 0,-132 59,-132 59,-332"/>
<polygon fill="none" stroke="black" points="0.5,-307 0.5,-332 59.5,-332 59.5,-307 0.5,-307"/>
<text text-anchor="start" x="7" y="-315.8" font-family="Arial Black" font-size="14.00"> Nodes</text>
<polygon fill="#ccffcc" stroke="none" points="0.5,-282 0.5,-307 40.5,-307 40.5,-282 0.5,-282"/>
<polygon fill="none" stroke="black" points="0.5,-282 0.5,-307 40.5,-307 40.5,-282 0.5,-282"/>
<text text-anchor="start" x="17" y="-290.8" font-family="Times,serif" font-size="14.00">1</text>
<polygon fill="none" stroke="black" points="40.5,-282 40.5,-307 59.5,-307 59.5,-282 40.5,-282"/>
<text text-anchor="start" x="46.5" y="-290.8" font-family="Times,serif" font-size="14.00">9</text>
<polygon fill="#ffffcc" stroke="none" points="0.5,-257 0.5,-282 40.5,-282 40.5,-257 0.5,-257"/>
<polygon fill="none" stroke="black" points="0.5,-257 0.5,-282 40.5,-282 40.5,-257 0.5,-257"/>
<text text-anchor="start" x="17" y="-265.8" font-family="Times,serif" font-size="14.00">2</text>
<polygon fill="none" stroke="black" points="40.5,-257 40.5,-282 59.5,-282 59.5,-257 40.5,-257"/>
<text text-anchor="start" x="46.5" y="-265.8" font-family="Times,serif" font-size="14.00">8</text>
<polygon fill="#ffffff" stroke="none" points="0.5,-232 0.5,-257 40.5,-257 40.5,-232 0.5,-232"/>
<polygon fill="none" stroke="black" points="0.5,-232 0.5,-257 40.5,-257 40.5,-232 0.5,-232"/>
<text text-anchor="start" x="11.5" y="-240.8" font-family="Times,serif" font-size="14.00">(+)</text>
<polygon fill="none" stroke="black" points="40.5,-232 40.5,-257 59.5,-257 59.5,-232 40.5,-232"/>
<text text-anchor="start" x="46.5" y="-240.8" font-family="Times,serif" font-size="14.00">1</text>
<polygon fill="none" stroke="black" points="0.5,-207 0.5,-232 59.5,-232 59.5,-207 0.5,-207"/>
<text text-anchor="start" x="5.5" y="-215.8" font-family="Arial Black" font-size="14.00"> Edges </text>
<polygon fill="none" stroke="black" points="0.5,-182 0.5,-207 40.5,-207 40.5,-182 0.5,-182"/>
<text text-anchor="start" x="6" y="-190.8" font-family="Times,serif" font-size="14.00" fill="#000000">isa_1</text>
<polygon fill="none" stroke="black" points="40.5,-182 40.5,-207 59.5,-207 59.5,-182 40.5,-182"/>
<text text-anchor="start" x="46.5" y="-190.8" font-family="Times,serif" font-size="14.00">8</text>
<polygon fill="none" stroke="black" points="0.5,-157 0.5,-182 40.5,-182 40.5,-157 0.5,-157"/>
<text text-anchor="start" x="6" y="-165.8" font-family="Times,serif" font-size="14.00" fill="#000000">isa_2</text>
<polygon fill="none" stroke="black" points="40.5,-157 40.5,-182 59.5,-182 59.5,-157 40.5,-157"/>
<text text-anchor="start" x="46.5" y="-165.8" font-family="Times,serif" font-size="14.00">7</text>
<polygon fill="none" stroke="black" points="0.5,-132 0.5,-157 40.5,-157 40.5,-132 0.5,-132"/>
<text text-anchor="start" x="9.5" y="-140.8" font-family="Times,serif" font-size="14.00" fill="#aa00ff">Art.</text>
<polygon fill="none" stroke="black" points="40.5,-132 40.5,-157 59.5,-157 59.5,-132 40.5,-132"/>
<text text-anchor="start" x="46.5" y="-140.8" font-family="Times,serif" font-size="14.00">8</text>
</g>
</g>
</svg>
